<?xml version="1.0" standalone="no"?>
<!DOCTYPE svg PUBLIC "-//W3C//DTD SVG 20010904//EN"
 "http://www.w3.org/TR/2001/REC-SVG-20010904/DTD/svg10.dtd">
<svg version="1.0" xmlns="http://www.w3.org/2000/svg"
 width="500.000000pt" height="500.000000pt" viewBox="0 0 500.000000 500.000000"
 preserveAspectRatio="xMidYMid meet">
<metadata>
Created by potrace 1.14, written by Peter Selinger 2001-2017
</metadata>
<g transform="translate(0.000000,500.000000) scale(0.100000,-0.100000)"
fill="#000000" stroke="none">
<path d="M2277 4874 c-1 -1 -29 -4 -62 -8 -106 -11 -243 -44 -297 -72 -16 -8
-28 -13 -28 -10 0 8 -133 -60 -206 -104 -118 -73 -193 -136 -304 -259 -35 -39
-100 -129 -100 -139 0 -5 -3 -12 -8 -14 -19 -8 -106 -197 -127 -278 -35 -131
-40 -171 -40 -335 1 -133 4 -178 19 -275 5 -29 17 -101 19 -114 2 -8 -9 -11
-63 -20 -27 -4 -39 -8 -117 -42 -115 -50 -220 -145 -270 -244 -15 -30 -28 -57
-29 -60 0 -3 -6 -18 -12 -33 -26 -63 -35 -221 -17 -315 8 -43 60 -155 94 -202
52 -73 142 -152 216 -190 29 -15 49 -33 52 -45 3 -21 15 -131 16 -152 0 -7 4
-13 9 -13 5 0 7 -4 3 -10 -7 -11 15 -83 58 -195 28 -73 41 -100 100 -205 47
-84 177 -251 249 -320 89 -85 116 -108 163 -140 28 -18 52 -36 55 -40 3 -3 30
-21 60 -40 30 -19 57 -37 60 -40 5 -5 121 -64 130 -66 3 0 23 -9 45 -19 22
-10 67 -27 100 -39 34 -13 60 -28 60 -36 0 -7 -24 -28 -54 -45 -187 -110 -232
-290 -111 -437 52 -63 200 -147 290 -163 14 -3 36 -7 50 -10 85 -17 276 -23
385 -11 127 13 250 54 340 111 59 38 94 75 126 130 33 57 32 160 -1 232 -13
28 -27 50 -31 48 -3 -3 -11 6 -18 18 -10 19 -68 65 -96 76 -29 11 -63 43 -59
55 3 7 28 23 57 36 29 12 79 34 112 49 33 15 64 28 69 28 5 1 12 5 15 10 3 5
27 21 53 36 124 71 292 217 400 347 65 78 158 221 206 316 37 73 117 284 108
284 -2 0 2 20 9 44 13 42 20 95 30 226 3 38 9 58 22 66 183 121 277 273 290
469 7 110 -9 192 -56 288 -41 86 -146 208 -189 221 -12 4 -22 11 -22 15 0 11
-105 57 -163 72 -69 17 -110 71 -113 148 -2 77 -11 117 -40 180 -27 60 -31 77
-40 176 -4 38 -8 73 -11 78 -2 4 -7 20 -10 35 -8 42 -7 39 -29 97 -4 11 -8 26
-10 32 -4 23 -78 167 -113 223 -194 309 -590 556 -941 586 -57 6 -279 11 -283
8z m228 -238 c171 -26 268 -56 395 -122 227 -117 461 -365 428 -453 -12 -34
-2 -57 39 -88 66 -50 102 -182 60 -216 -8 -7 -18 -25 -21 -40 -6 -25 -1 -34
37 -70 27 -26 52 -61 63 -91 18 -49 18 -51 -11 -172 -3 -12 2 -27 13 -37 79
-74 114 -116 118 -142 1 -7 11 -33 22 -58 19 -42 23 -45 53 -43 38 3 172 -31
177 -45 2 -5 10 -9 17 -9 7 0 35 -20 62 -44 62 -56 113 -160 114 -233 2 -56
-9 -112 -23 -130 -6 -7 -7 -13 -3 -13 11 0 -36 -73 -74 -113 -37 -40 -124 -91
-135 -80 -3 4 -6 1 -6 -5 0 -7 -11 -12 -23 -12 -48 0 -55 -23 -60 -190 -4
-136 -8 -179 -20 -240 -6 -28 -28 -105 -34 -120 -4 -8 -7 -17 -8 -20 -7 -27
-30 -80 -35 -80 -4 0 -7 -6 -7 -12 0 -17 -102 -192 -114 -196 -5 -2 -9 -10 -9
-17 0 -7 -7 -15 -15 -19 -8 -3 -15 -11 -15 -19 0 -7 -44 -59 -97 -114 -82 -84
-134 -129 -248 -211 -41 -29 -245 -131 -275 -137 -8 -2 -42 -11 -75 -21 -33
-10 -63 -17 -67 -16 -25 6 -32 -66 -29 -320 1 -59 11 -73 58 -81 30 -5 97 -39
117 -60 27 -28 23 -65 -10 -96 -38 -34 -65 -47 -142 -66 -81 -20 -257 -36
-282 -25 -3 1 -21 4 -40 5 -40 3 -142 28 -181 43 -41 17 -89 62 -89 86 0 12 7
32 16 45 17 24 106 71 137 71 9 0 26 9 37 20 18 18 20 33 19 179 0 107 -4 164
-12 175 -7 9 -55 27 -107 41 -52 14 -108 30 -125 37 -52 19 -188 86 -230 112
-22 14 -53 33 -68 41 -15 9 -37 24 -49 33 -58 47 -156 135 -179 159 -69 75
-179 224 -179 242 0 5 -3 11 -8 13 -8 3 -83 154 -86 173 -1 6 -4 15 -8 20 -3
6 -13 37 -23 70 -24 85 -27 96 -31 130 -2 17 -6 46 -9 65 -3 19 -7 70 -8 114
-2 87 -2 86 -77 106 -81 22 -142 54 -184 98 -37 38 -92 122 -81 122 2 0 -2 15
-10 34 -22 52 -13 159 19 230 36 79 114 153 179 171 4 2 9 4 12 5 3 1 10 4 15
5 6 1 11 3 13 5 5 4 44 11 87 16 39 5 73 0 153 -21 60 -16 73 -13 78 20 1 11
-1 39 -5 63 -4 23 -9 52 -11 65 -1 12 -5 33 -9 47 -3 14 -8 43 -10 65 -3 22
-7 49 -9 60 -3 11 -8 40 -12 65 -4 25 -9 52 -10 61 -7 36 -19 178 -20 234 -1
72 18 189 42 259 9 28 17 53 18 56 1 12 71 145 78 148 4 2 7 8 7 14 0 15 48
76 115 146 55 58 164 146 225 181 77 45 215 104 230 99 3 -1 14 3 25 9 11 6
37 14 59 17 21 4 41 8 45 10 3 2 33 7 66 11 33 3 61 8 63 10 5 5 150 -2 197
-9z"/>
<path d="M2398 4565 c-3 -3 -41 -7 -84 -10 -43 -2 -104 -9 -134 -15 -30 -6
-65 -13 -78 -16 -79 -16 -234 -94 -332 -168 -70 -52 -222 -206 -204 -206 3 0
-6 -15 -19 -32 -43 -59 -97 -189 -112 -273 -10 -49 -11 -182 -3 -190 21 -21
99 10 230 92 21 13 39 23 42 23 2 0 48 25 102 56 240 136 508 254 634 278 14
2 61 12 105 21 93 19 200 29 305 29 79 0 208 -12 222 -20 4 -3 32 -7 62 -10
49 -5 55 -4 61 16 5 15 -2 32 -21 58 -38 51 -123 132 -175 167 -24 17 -46 33
-49 36 -9 12 -175 87 -235 107 -63 21 -178 43 -250 46 -23 2 -46 6 -52 9 -6 4
-12 4 -15 2z"/>
<path d="M2727 4054 c-2 -2 -25 -6 -53 -9 -27 -3 -56 -8 -64 -10 -8 -2 -31 -7
-50 -10 -19 -3 -43 -8 -52 -11 -9 -3 -25 -6 -35 -8 -95 -19 -337 -116 -458
-184 -33 -19 -98 -54 -145 -79 -47 -26 -105 -57 -130 -71 -25 -14 -65 -36 -90
-50 -80 -44 -115 -66 -122 -76 -4 -6 -8 -7 -8 -3 0 17 -50 -47 -60 -78 -17
-51 2 -111 43 -135 60 -37 72 -33 347 123 175 99 449 231 550 264 79 26 163
49 250 68 74 15 261 35 350 37 31 1 144 -10 185 -18 17 -3 55 -15 86 -28 61
-24 87 -18 93 21 5 28 -39 106 -79 141 -36 33 -135 88 -135 76 0 -4 -6 -2 -12
3 -7 6 -31 14 -53 18 -22 5 -47 10 -55 12 -20 5 -298 11 -303 7z"/>
<path d="M2878 3715 c-2 -1 -28 -5 -58 -9 -30 -3 -66 -8 -80 -11 -14 -3 -41
-8 -60 -9 -19 -2 -42 -6 -50 -9 -20 -8 -132 -40 -147 -43 -24 -4 -108 -37
-117 -46 -6 -4 -15 -8 -22 -8 -6 0 -40 -13 -75 -29 -35 -16 -68 -29 -73 -29
-5 0 -12 -4 -15 -9 -3 -5 -22 -17 -41 -27 -72 -36 -95 -49 -100 -55 -3 -3 -62
-35 -133 -71 -70 -36 -127 -68 -127 -72 0 -5 -3 -7 -7 -6 -5 1 -32 -11 -62
-27 -114 -63 -138 -82 -160 -129 -18 -35 -19 -48 -10 -81 11 -40 54 -89 70
-80 4 3 10 1 13 -4 8 -13 64 2 111 29 64 37 513 263 593 299 108 49 278 111
346 126 12 3 48 11 81 19 217 53 504 53 607 0 39 -20 66 -25 74 -13 10 17 12
79 2 79 -5 0 -8 6 -6 13 3 16 -29 65 -67 100 -34 32 -109 69 -175 88 -37 10
-303 22 -312 14z"/>
<path d="M2888 3355 c-32 -7 -60 -10 -63 -7 -3 3 -5 0 -5 -7 0 -7 -4 -10 -9
-7 -19 12 -249 -62 -389 -126 -34 -15 -64 -28 -66 -28 -2 0 -75 -35 -162 -77
-87 -42 -161 -77 -164 -78 -8 -2 -282 -141 -326 -165 -86 -48 -104 -82 -95
-180 3 -34 50 -72 94 -77 46 -6 87 12 297 127 52 28 100 53 105 54 6 1 16 6
24 10 63 39 410 200 506 234 154 55 275 84 400 99 106 12 314 8 340 -6 6 -3
18 -7 28 -8 10 -2 42 -14 71 -28 29 -14 60 -25 69 -25 25 0 31 45 13 94 -16
41 -93 136 -110 136 -4 0 -20 8 -34 19 -61 43 -147 59 -312 58 -85 0 -181 -6
-212 -12z"/>
<path d="M3015 3019 c-16 -5 -43 -11 -60 -13 -110 -18 -341 -101 -533 -192
-260 -124 -681 -338 -705 -358 -33 -29 -48 -61 -49 -105 -1 -68 41 -113 106
-113 30 0 223 87 251 113 5 5 14 9 21 9 7 0 41 16 76 36 206 118 637 319 728
339 3 1 25 7 50 15 65 20 95 27 140 36 14 3 32 7 40 9 68 20 268 26 347 9 34
-7 85 -24 113 -38 60 -30 73 -32 90 -11 19 23 -14 112 -58 158 -32 33 -94 75
-127 84 -103 28 -142 33 -265 32 -74 -1 -148 -6 -165 -10z"/>
<path d="M3673 3019 c-27 -10 -30 -44 -8 -69 8 -9 25 -45 38 -80 20 -58 26
-65 57 -72 43 -11 82 -51 73 -76 -9 -22 -29 -42 -42 -42 -43 0 -71 -129 -36
-164 21 -21 40 -20 90 3 34 15 126 91 111 91 -2 0 5 26 16 58 37 104 9 212
-75 288 -57 53 -170 84 -224 63z"/>
<path d="M1135 2940 c-11 -5 -27 -10 -35 -13 -32 -10 -35 -11 -48 -21 -89 -72
-124 -137 -123 -229 1 -120 103 -240 223 -262 31 -6 38 -4 49 17 15 27 12 123
-4 149 -6 10 -23 21 -38 24 -51 11 -43 82 11 105 31 13 66 2 95 -30 18 -20 20
-38 21 -208 3 -368 24 -480 130 -701 136 -281 404 -524 704 -636 25 -9 52 -18
61 -20 8 -2 39 -10 67 -19 29 -8 78 -18 110 -22 31 -3 60 -8 63 -10 10 -6 8
-484 -2 -485 -12 -2 -28 -6 -34 -9 -3 -1 -8 -3 -12 -5 -5 -1 -21 -5 -36 -9
-34 -10 -63 -59 -44 -74 22 -19 64 -31 114 -33 26 -1 58 -6 71 -10 14 -6 22
-5 22 2 0 8 4 8 13 0 8 -6 17 -8 21 -4 3 4 23 8 44 9 96 5 139 18 147 44 10
30 -17 60 -63 73 -30 8 -44 18 -47 32 -2 11 -3 121 -2 244 2 190 4 224 17 227
17 2 65 12 95 18 48 10 191 61 197 70 4 6 8 8 8 4 0 -16 148 69 245 140 54 40
231 212 219 212 -3 0 2 7 11 17 24 23 109 153 126 191 8 18 17 32 21 32 5 0 8
6 8 13 0 7 11 37 25 65 14 29 25 57 25 62 0 6 9 37 20 70 24 72 15 116 -23
104 -12 -3 -35 -21 -50 -38 -46 -51 -102 -109 -141 -144 -20 -19 -36 -38 -36
-43 0 -24 -102 -169 -165 -233 -152 -155 -393 -281 -579 -303 -54 -6 -212 -6
-256 1 -58 9 -161 37 -215 58 -72 28 -175 81 -175 90 0 5 -5 8 -10 8 -25 0
-165 120 -229 196 -31 36 -140 196 -139 203 1 4 -8 27 -20 53 -18 40 -26 65
-47 138 -11 38 -18 166 -20 363 -3 257 -6 288 -36 352 -22 47 -89 125 -107
125 -7 0 -12 3 -12 8 0 30 -184 63 -235 42z"/>
<path d="M3195 2702 c-109 -10 -329 -67 -422 -108 -17 -8 -33 -14 -36 -14 -6
0 -131 -55 -157 -69 -80 -43 -410 -213 -465 -239 -332 -160 -375 -184 -375
-206 0 -60 142 -150 233 -147 62 1 111 10 152 26 191 75 248 116 412 298 26
29 50 47 64 47 27 0 59 -35 59 -65 0 -19 -40 -92 -73 -131 -65 -80 -179 -170
-239 -190 -10 -4 -18 -10 -18 -15 0 -5 -6 -9 -13 -9 -7 0 -44 -13 -82 -29 -39
-16 -79 -31 -90 -33 -25 -4 -35 -17 -35 -45 0 -16 11 -26 48 -40 26 -10 49
-18 52 -18 3 0 10 -3 15 -6 6 -4 37 -14 70 -24 79 -23 174 -22 217 2 121 67
244 198 305 323 48 100 55 132 58 275 1 55 5 110 9 123 9 28 53 47 71 32 6 -5
14 -7 17 -5 3 3 13 -7 23 -22 15 -23 19 -49 19 -143 0 -63 -3 -128 -6 -145
-10 -51 -32 -115 -40 -115 -5 0 -8 -7 -8 -15 0 -28 -68 -123 -135 -190 -36
-35 -65 -70 -65 -78 0 -20 21 -35 45 -31 11 2 29 5 40 7 11 2 25 5 30 9 6 3
24 8 40 12 42 10 146 60 170 82 64 59 141 197 151 273 5 31 6 216 3 321 -3 64
1 77 24 86 12 6 28 9 35 8 6 -1 16 -2 22 -3 47 -6 79 -292 44 -394 -7 -20 -13
-38 -12 -40 0 -1 -3 -13 -7 -26 -5 -18 -3 -28 11 -38 10 -7 21 -13 25 -13 7 0
82 76 118 120 11 14 24 30 29 35 18 22 73 130 103 201 49 118 45 194 -14 260
-75 84 -235 125 -422 106z"/>
<path d="M1755 1838 c-13 -20 -13 -25 3 -49 46 -73 125 -158 191 -207 20 -15
38 -30 41 -33 14 -16 152 -89 200 -105 30 -11 57 -22 58 -27 2 -4 7 -5 12 -2
5 3 21 0 36 -5 57 -22 250 -31 349 -16 154 22 297 85 410 181 57 48 73 81 50
104 -13 13 -20 13 -48 2 -156 -64 -220 -84 -337 -106 -14 -3 -36 -7 -50 -10
-57 -12 -200 -14 -275 -4 -154 22 -386 115 -475 192 -11 9 -23 17 -26 17 -2 0
-23 17 -45 38 -55 50 -75 57 -94 30z"/>
<path d="M3872 4388 c-14 -16 -22 -39 -24 -73 l-3 -50 -44 -2 c-52 -2 -78 -23
-87 -70 -12 -63 22 -97 96 -98 33 0 35 -2 37 -35 4 -71 10 -83 42 -101 39 -21
77 -16 109 13 17 17 22 33 22 70 0 35 4 48 15 49 8 1 27 2 43 4 41 3 61 15 76
44 32 63 -13 123 -94 125 -35 1 -35 1 -38 51 -4 66 -30 95 -87 95 -30 0 -47
-6 -63 -22z"/>
<path d="M763 4126 c-67 -30 -92 -119 -53 -184 35 -57 121 -76 180 -40 68 41
71 170 6 213 -35 23 -95 28 -133 11z"/>
<path d="M805 3652 c-100 -12 -146 -141 -78 -222 57 -69 173 -63 217 11 64
109 -13 225 -139 211z"/>
<path d="M3966 3646 c-87 -51 -106 -153 -42 -225 79 -88 232 -39 244 79 5 56
-14 99 -60 131 -36 26 -111 34 -142 15z"/>
<path d="M654 2145 c-16 -7 -42 -27 -57 -44 -29 -35 -33 -57 -28 -133 0 -10
15 -33 31 -52 66 -74 190 -62 238 23 12 21 22 54 22 73 0 39 -29 98 -56 112
-10 6 -22 15 -25 20 -11 14 -92 15 -125 1z"/>
<path d="M4199 2083 c-55 -34 -85 -129 -58 -182 34 -65 75 -89 146 -86 137 7
183 185 68 264 -38 26 -118 28 -156 4z"/>
<path d="M804 1539 c-15 -10 -33 -27 -39 -39 -16 -29 -5 -83 22 -114 32 -37
99 -36 142 0 17 14 29 29 27 33 -3 4 -1 13 4 20 11 18 -6 64 -33 89 -30 29
-89 34 -123 11z"/>
<path d="M4064 1550 c-11 -4 -28 -19 -36 -32 -47 -72 -1 -158 85 -158 48 0 73
13 91 48 45 88 -44 178 -140 142z"/>
<path d="M3843 1369 c-26 -10 -43 -38 -43 -73 0 -22 -5 -26 -28 -26 -54 0 -88
-68 -55 -109 16 -20 35 -28 71 -30 6 -1 12 -11 12 -23 0 -41 11 -65 35 -76 47
-22 93 4 101 58 5 32 11 40 28 40 37 0 66 28 66 63 0 45 -25 77 -59 77 -25 0
-29 4 -35 39 -9 55 -44 79 -93 60z"/>
<path d="M1070 1303 c-57 -16 -74 -43 -72 -114 1 -36 1 -36 -40 -34 -55 3 -92
-28 -92 -79 0 -48 31 -80 81 -82 21 -1 41 -3 45 -3 4 -1 7 -11 6 -23 -2 -45 3
-63 21 -87 19 -25 73 -35 103 -20 25 13 45 58 43 97 -1 17 3 32 9 33 6 1 25 2
42 3 61 3 93 60 67 114 -16 33 -40 46 -88 47 -27 0 -30 3 -30 35 -1 80 -41
127 -95 113z"/>
<path d="M1468 936 c-51 -26 -81 -73 -81 -130 0 -51 34 -107 75 -125 131 -58
255 58 198 186 -35 78 -117 108 -192 69z"/>
<path d="M3503 898 c-40 -10 -80 -58 -89 -104 -20 -110 82 -196 189 -159 92
31 123 149 59 222 -40 45 -93 59 -159 41z"/>
</g>
</svg>
